<svg xmlns="http://www.w3.org/2000/svg" width="183.934" height="126.101" viewBox="0 0 183.934 126.101">
  <g id="layer1" transform="translate(-396 -342.014)">
    <path id="path453507" d="M475.115,344.014A45.083,45.083,0,0,0,430.131,389v.064c0,.409.1.809.112,1.217C412.129,393.416,398,408.575,398,427.557a38.656,38.656,0,0,0,38.557,38.558H545.8a32.229,32.229,0,0,0,32.131-32.131c0-15.452-11.274-27.845-25.867-30.864.019-.411.16-.806.163-1.217v-.052A32.229,32.229,0,0,0,520.1,369.719h-.052a32.152,32.152,0,0,0-4.543.778c-7.26-15.775-22.687-26.482-40.39-26.484Zm0,12.853a32.076,32.076,0,0,1,30.674,22.58,6.429,6.429,0,0,0,8.223,4.166,19.137,19.137,0,0,1,25.365,18.226v.012a19.107,19.107,0,0,1-.665,4.82,6.426,6.426,0,0,0,6.777,8.07c.174-.013.243-.019.352-.026a19.272,19.272,0,0,1-.038,38.545H436.557a25.7,25.7,0,0,1,0-51.409c.059,0,.2,0,.416.012a6.426,6.426,0,0,0,6.513-7.555,32.026,32.026,0,0,1-.5-5.31v-.012A32.034,32.034,0,0,1,475.115,356.867Z" transform="translate(0 0)" fill="none" stroke="rgba(255,255,255,0.65)" stroke-linecap="round" stroke-width="4" stroke-dasharray="4 12" fill-rule="evenodd"/>
  </g>
</svg>
