<svg xmlns="http://www.w3.org/2000/svg" width="11.959" height="13.472" viewBox="0 0 11.959 13.472">
  <g id="Untitled-2" transform="translate(-1 134)">
    <path id="Path_22117" data-name="Path 22117" d="M66.264-133.269C64.579-130.63,64-129.716,64-129.675a8.186,8.186,0,0,0,1.117.041h1.117v2.233l.284-.01c.244,0,.416-.223,1.665-2.173l1.381-2.173-1.127-.03-1.137-.03-.03-1.1c-.03-1.076-.03-1.086-.274-1.086C66.792-134,66.65-133.848,66.264-133.269Z" transform="translate(-56.604)" fill="#5c5f62"/>
    <path id="Path_22118" data-name="Path 22118" d="M3.731-110.667c-1.2.68-2.315,1.32-2.457,1.421L1-109.063l.02,2.8.03,2.812,2.487,1.391,2.487,1.381.558-.315c.3-.173,1.421-.792,2.467-1.371l1.9-1.066v-1.726c-.01-1.462-.03-1.706-.142-1.563s-.3.183-1.167.183H8.614v-2.233H7.142c-1.218,0-1.472-.03-1.472-.142a7.41,7.41,0,0,1,.7-1.239,5.017,5.017,0,0,0,.66-1.178,5.3,5.3,0,0,0-1.076-.579C5.934-111.905,4.939-111.347,3.731-110.667Z" transform="translate(0 -19.851)" fill="#5c5f62"/>
  </g>
</svg>
