<svg xmlns="http://www.w3.org/2000/svg" width="18.845" height="16.751" viewBox="0 0 18.845 16.751">
  <g id="cloud-configuration-svgrepo-com" transform="translate(0 -27.512)">
    <path id="Path_22127" data-name="Path 22127" d="M10.986,37.177a1.492,1.492,0,0,1,1.826-.647,1.494,1.494,0,0,1,1.474-1.258H15.62a1.5,1.5,0,0,1,1.474,1.258,1.5,1.5,0,0,1,.534-.1c.025,0,.048.009.073.01a4.051,4.051,0,0,0-4.041-4.568c-.033,0-.065,0-.1,0A5.363,5.363,0,1,0,3.094,34.186c-.056,0-.11-.017-.167-.017A2.931,2.931,0,0,0,2.7,40.023h7.777a1.434,1.434,0,0,1-.157-1.689Z" fill="#5c5f62"/>
    <path id="Path_22128" data-name="Path 22128" d="M298.122,260.886l-.5-.291a1.98,1.98,0,0,0,0-.784l.5-.291a.549.549,0,0,0,.2-.751l-.667-1.156a.55.55,0,0,0-.751-.2l-.5.289a3.135,3.135,0,0,0-.682-.406v-.566a.549.549,0,0,0-.55-.55h-1.335a.55.55,0,0,0-.55.55v.566a3.119,3.119,0,0,0-.682.406l-.5-.29a.55.55,0,0,0-.751.2l-.667,1.156a.55.55,0,0,0,.2.751l.5.291a1.979,1.979,0,0,0,0,.784l-.5.291a.55.55,0,0,0-.2.751l.667,1.156a.55.55,0,0,0,.751.2l.5-.29a3.124,3.124,0,0,0,.682.407v.566a.549.549,0,0,0,.55.55h1.335a.549.549,0,0,0,.55-.55v-.566a3.122,3.122,0,0,0,.682-.407l.5.29a.55.55,0,0,0,.751-.2l.667-1.156A.55.55,0,0,0,298.122,260.886Zm-3.617,1.344a2.027,2.027,0,1,1,2.027-2.027A2.03,2.03,0,0,1,294.5,262.231Z" transform="translate(-279.552 -219.964)" fill="#5c5f62"/>
    <path id="Path_22129" data-name="Path 22129" d="M357.52,325.15a1.4,1.4,0,1,0,1.4,1.4A1.4,1.4,0,0,0,357.52,325.15Z" transform="translate(-342.567 -286.31)" fill="#5c5f62"/>
  </g>
</svg>
