<svg xmlns="http://www.w3.org/2000/svg" width="33" height="33" viewBox="0 0 33 33">
  <g id="docker-svgrepo-com" transform="translate(-2 -2)">
    <circle id="Ellipse_70" data-name="Ellipse 70" cx="16.5" cy="16.5" r="16.5" transform="translate(2 2)" fill="#26a0f1"/>
    <path id="Path_22119" data-name="Path 22119" d="M18,7H16V9h2Z" transform="translate(2.692 0.962)" fill="#fff"/>
    <path id="Path_22120" data-name="Path 22120" d="M10,10h2v2H10Z" transform="translate(1.538 1.538)" fill="#fff"/>
    <path id="Path_22121" data-name="Path 22121" d="M6,16.941c.21,2.9,2.33,7.059,9.816,7.059,8.345,0,12.068-5,12.886-7.5A4.948,4.948,0,0,0,33,14c-.614-.5-3.068-.5-4.3,0a3.638,3.638,0,0,0-1.841-3c-.818.667-2.086,2.4-.614,4-.614,1-2.25,1-3.068,1H7.157C6.507,16,5.964,16.413,6,16.941Z" transform="translate(0 3)" fill="#fff"/>
    <path id="Path_22122" data-name="Path 22122" d="M9,13H7v2H9Z" transform="translate(0.962 2.115)" fill="#fff"/>
    <path id="Path_22123" data-name="Path 22123" d="M10,13h2v2H10Z" transform="translate(1.538 2.115)" fill="#fff"/>
    <path id="Path_22124" data-name="Path 22124" d="M15,13H13v2h2Z" transform="translate(2.115 2.115)" fill="#fff"/>
    <path id="Path_22125" data-name="Path 22125" d="M16,13h2v2H16Z" transform="translate(2.692 2.115)" fill="#fff"/>
    <path id="Path_22126" data-name="Path 22126" d="M21,13H19v2h2Z" transform="translate(3.269 2.115)" fill="#fff"/>
    <path id="Path_22127" data-name="Path 22127" d="M15,10H13v2h2Z" transform="translate(2.115 1.538)" fill="#fff"/>
    <path id="Path_22128" data-name="Path 22128" d="M16,10h2v2H16Z" transform="translate(2.692 1.538)" fill="#fff"/>
  </g>
</svg>
