<svg id="personal-data-security-interface-symbol-svgrepo-com" xmlns="http://www.w3.org/2000/svg" width="16.105" height="16.105" viewBox="0 0 16.105 16.105">
  <g id="Group_165396" data-name="Group 165396">
    <path id="Path_22131" data-name="Path 22131" d="M56.82,44.088c.02-.827,1.649-1.879,1.64-4.177A3.681,3.681,0,0,0,55.431,36.6c-1.9-.24-3.327.179-3.949,1.352a4.582,4.582,0,0,0-.622,2.393,3.221,3.221,0,0,0,.251.551,7.578,7.578,0,0,0-.9,1.711c.06.24.718.369.718.369a.786.786,0,0,1-.061.489c-.119.323.223.7.325.829s-.143.539-.059.766a.913.913,0,0,0,.934.444c.455-.06,1.039-.168,1.242-.2a1.279,1.279,0,0,1-.646,1.628h5.8S56.784,45.573,56.82,44.088ZM54.8,38.879a.841.841,0,0,1,1.682,0v.286h-.312v-.286a.529.529,0,0,0-1.058,0v.286H54.8v-.286Zm2.009,2.077a.156.156,0,0,1-.155.156H54.631a.157.157,0,0,1-.157-.156V39.4a.157.157,0,0,1,.157-.155h2.025a.155.155,0,0,1,.155.155Z" transform="translate(-46.286 -33.676)" fill="#5c5f62"/>
    <path id="Path_22132" data-name="Path 22132" d="M8.053,0a8.053,8.053,0,1,0,8.053,8.053A8.062,8.062,0,0,0,8.053,0Zm0,15.131a7.078,7.078,0,1,1,7.078-7.078A7.086,7.086,0,0,1,8.053,15.131Z" fill="#5c5f62"/>
  </g>
</svg>
