<svg xmlns="http://www.w3.org/2000/svg" width="13.889" height="13.889" viewBox="0 0 13.889 13.889">
  <g id="backup-cloud-server-svgrepo-com" transform="translate(0 0)">
    <path id="Path_22162" data-name="Path 22162" d="M28.087,48.254a.868.868,0,0,0-1.228,0l-2.6,2.6a.868.868,0,1,0,1.228,1.228L26.6,50.964v3.113a.868.868,0,1,0,1.736,0V50.964l1.122,1.122a.868.868,0,1,0,1.228-1.228Z" transform="translate(-20.528 -41.056)" fill="#5c5f62"/>
    <path id="Path_22163" data-name="Path 22163" d="M11.285,3.472H11.2A4.339,4.339,0,0,0,2.969,2.6,3.043,3.043,0,0,0,0,5.642,3,3,0,0,0,2.425,8.574a.868.868,0,1,0,.358-1.7A1.273,1.273,0,0,1,1.736,5.642a1.3,1.3,0,0,1,1.3-1.3,2.746,2.746,0,0,1,.309.078.865.865,0,0,0,.669-.1.874.874,0,0,0,.393-.551,2.6,2.6,0,0,1,5.14.573.868.868,0,0,0,.868.868h.868a.868.868,0,1,1,0,1.736.868.868,0,1,0,0,1.736,2.6,2.6,0,1,0,0-5.208Z" transform="translate(0 0)" fill="#5c5f62"/>
  </g>
</svg>
