<svg xmlns="http://www.w3.org/2000/svg" width="33" height="33" viewBox="0 0 33 33">
  <path id="wordpress-round-svgrepo-com" d="M-126.5,145A16.5,16.5,0,0,0-143,161.5,16.5,16.5,0,0,0-126.5,178,16.5,16.5,0,0,0-110,161.5,16.5,16.5,0,0,0-126.5,145Zm-8.25,16.5a8.21,8.21,0,0,1,.715-3.358l3.938,10.783A8.245,8.245,0,0,1-134.75,161.5Zm8.25,8.25a8.2,8.2,0,0,1-2.333-.335l2.475-7.193,2.533,6.948a.589.589,0,0,0,.058.11A8.14,8.14,0,0,1-126.5,169.75Zm1.141-12.117c.5-.026.941-.077.941-.077a.343.343,0,0,0-.052-.683s-1.341.1-2.2.1c-.812,0-2.172-.1-2.172-.1a.343.343,0,0,0-.052.683s.419.052.864.077l1.289,3.519-1.8,5.414-3-8.933c.5-.026.941-.077.941-.077a.343.343,0,0,0-.052-.683s-1.334.1-2.2.1c-.155,0-.335-.006-.529-.013a8.249,8.249,0,0,1,6.9-3.719,8.227,8.227,0,0,1,5.569,2.166c-.039,0-.071-.006-.1-.006a1.429,1.429,0,0,0-1.386,1.463,3.833,3.833,0,0,0,.812,1.934,4.326,4.326,0,0,1,.683,2.275,7.819,7.819,0,0,1-.625,2.668l-.825,2.746Zm3.01,11,2.52-7.283a7.8,7.8,0,0,0,.625-2.952,5.884,5.884,0,0,0-.058-.851,8.207,8.207,0,0,1,1.012,3.957A8.249,8.249,0,0,1-122.349,168.629Z" transform="translate(143 -145)" fill="#26a0f1"/>
</svg>
