<svg xmlns="http://www.w3.org/2000/svg" width="10.879" height="11.868" viewBox="0 0 10.879 11.868">
  <g id="contract-management-line-svgrepo-com" transform="translate(-109.74 -73.06)">
    <path id="Path_22136" data-name="Path 22136" d="M110.729,74.049h7.912v4.945h.989V73.06h-9.89V84.928h5.439v-.989h-4.45Z" fill="#5c5f62"/>
    <path id="Path_22137" data-name="Path 22137" d="M256.01,219.34h5.934v.989H256.01Zm0,1.978h4.945v.989H256.01Zm0,1.978h2.967v.989H256.01Zm6.428.458-2.472,1.36v2.72l2.473,1.36,2.472-1.36v-2.72Zm1.484,3.495-1.483.816-1.483-.816V225.7l1.483-.816,1.483.816Z" transform="translate(-144.292 -144.302)" fill="#5c5f62"/>
    <path id="Path_22138" data-name="Path 22138" d="M695.365,710.824m-.495,0a.494.494,0,1,0,.495-.495A.495.495,0,0,0,694.87,710.824Z" transform="translate(-577.218 -628.653)" fill="#5c5f62"/>
  </g>
</svg>
