<svg xmlns="http://www.w3.org/2000/svg" width="11.528" height="13.992" viewBox="0 0 11.528 13.992">
  <path id="letsencrypt-svgrepo-com" d="M10.322,13.353h.008a.956.956,0,0,1,.475,1.786l0,0v.931a.471.471,0,0,1-.941,0v-.931a.956.956,0,0,1,.462-1.788h0Zm0-5.441h.005a1.608,1.608,0,0,1,1.608,1.608h0v1.112H8.722V9.521h0a1.608,1.608,0,0,1,1.6-1.608Zm-.01-2.163A3.771,3.771,0,0,0,6.559,9.521h0v1.112H5.687a.724.724,0,0,0-.721.721v6.868a.723.723,0,0,0,.721.721h9.287a.723.723,0,0,0,.721-.721V11.352a.723.723,0,0,0-.721-.719H14.1V9.521A3.771,3.771,0,0,0,10.329,5.75h-.014Z" transform="translate(-4.566 -5.35)" fill="none" stroke="#5c5f62" stroke-width="0.8"/>
</svg>
