<svg xmlns="http://www.w3.org/2000/svg" width="14.359" height="14.47" viewBox="0 0 14.359 14.47">
  <path id="cloud-server-connection-svgrepo-com" d="M15.2,10.973h-.209V9.593a1.076,1.076,0,0,0-1.075-1.075H9.56V6.8h2.068a2.216,2.216,0,0,0,0-4.432l-.052,0A2.917,2.917,0,1,0,5.882,3.63c-.031,0-.06-.009-.091-.009A1.595,1.595,0,0,0,5.666,6.8H8.6V8.518H4.239A1.076,1.076,0,0,0,3.164,9.593v1.38H2.956A1.057,1.057,0,0,0,1.9,12.031v1.382A1.057,1.057,0,0,0,2.956,14.47H4.338A1.057,1.057,0,0,0,5.4,13.413V12.031a1.057,1.057,0,0,0-1.058-1.058H4.129V9.593a.11.11,0,0,1,.11-.11H8.6v1.49H8.387a1.057,1.057,0,0,0-1.058,1.058v1.382A1.057,1.057,0,0,0,8.387,14.47H9.769a1.057,1.057,0,0,0,1.058-1.058V12.031a1.057,1.057,0,0,0-1.058-1.058H9.56V9.483h4.356a.11.11,0,0,1,.11.11v1.38h-.209a1.057,1.057,0,0,0-1.058,1.058v1.382a1.057,1.057,0,0,0,1.058,1.058H15.2a1.057,1.057,0,0,0,1.058-1.058V12.031A1.058,1.058,0,0,0,15.2,10.973Z" transform="translate(-1.898)" fill="#5c5f62"/>
</svg>
