<svg xmlns="http://www.w3.org/2000/svg" width="13.43" height="15.046" viewBox="0 0 13.43 15.046">
  <g id="cloud-computing-servers-svgrepo-com" transform="translate(-5.297)">
    <g id="Group_165396" data-name="Group 165396" transform="translate(5.297)">
      <path id="Path_22134" data-name="Path 22134" d="M11.124,54.583H8.02a.4.4,0,0,0-.4.4V60.9a.4.4,0,0,0,.4.4h3.1a.4.4,0,0,0,.4-.4V54.986A.4.4,0,0,0,11.124,54.583Zm-.26,6.068h-2.6V55.233h2.6Z" transform="translate(-7.262 -46.255)" fill="#5c5f62"/>
      <path id="Path_22135" data-name="Path 22135" d="M15.483,83.3H13.327v1.425h2.156Zm-.207,1.2H13.534V83.52h1.742Z" transform="translate(-12.102 -70.589)" fill="#5c5f62"/>
      <rect id="Rectangle_16075" data-name="Rectangle 16075" width="0.207" height="0.65" transform="translate(2.76 13.097)" fill="#5c5f62"/>
      <rect id="Rectangle_16076" data-name="Rectangle 16076" width="0.221" height="0.65" transform="translate(2.414 13.097)" fill="#5c5f62"/>
      <path id="Path_22136" data-name="Path 22136" d="M15.589,86.337a.348.348,0,1,0-.348-.348A.348.348,0,0,0,15.589,86.337Zm0-.479a.131.131,0,1,1-.131.131A.132.132,0,0,1,15.589,85.858Z" transform="translate(-13.724 -72.574)" fill="#5c5f62"/>
      <path id="Path_22137" data-name="Path 22137" d="M15.483,71.975H13.327V73.4h2.156Zm-.207,1.2H13.534v-1h1.742Z" transform="translate(-12.102 -60.993)" fill="#5c5f62"/>
      <rect id="Rectangle_16077" data-name="Rectangle 16077" width="0.207" height="0.649" transform="translate(2.76 11.355)" fill="#5c5f62"/>
      <rect id="Rectangle_16078" data-name="Rectangle 16078" width="0.221" height="0.649" transform="translate(2.414 11.355)" fill="#5c5f62"/>
      <path id="Path_22138" data-name="Path 22138" d="M15.589,74.96a.348.348,0,1,0-.348-.348A.348.348,0,0,0,15.589,74.96Zm0-.479a.131.131,0,1,1-.131.131A.132.132,0,0,1,15.589,74.481Z" transform="translate(-13.724 -62.933)" fill="#5c5f62"/>
      <path id="Path_22139" data-name="Path 22139" d="M15.483,60.561H13.327v1.424h2.156Zm-.207,1.2H13.534v-1h1.742Z" transform="translate(-12.102 -51.321)" fill="#5c5f62"/>
      <rect id="Rectangle_16079" data-name="Rectangle 16079" width="0.207" height="0.649" transform="translate(2.76 9.614)" fill="#5c5f62"/>
      <rect id="Rectangle_16080" data-name="Rectangle 16080" width="0.221" height="0.649" transform="translate(2.414 9.614)" fill="#5c5f62"/>
      <path id="Path_22140" data-name="Path 22140" d="M15.589,63.548a.348.348,0,1,0-.348-.348A.348.348,0,0,0,15.589,63.548Zm0-.479a.131.131,0,1,1-.131.131A.131.131,0,0,1,15.589,63.069Z" transform="translate(-13.724 -53.262)" fill="#5c5f62"/>
      <path id="Path_22141" data-name="Path 22141" d="M40,54.583h-3.1a.4.4,0,0,0-.4.4V60.9a.4.4,0,0,0,.4.4H40a.4.4,0,0,0,.4-.4V54.986A.4.4,0,0,0,40,54.583Zm-.26,6.068h-2.6V55.233h2.6Z" transform="translate(-31.728 -46.255)" fill="#5c5f62"/>
      <path id="Path_22142" data-name="Path 22142" d="M44.354,83.3H42.2v1.425h2.156Zm-.208,1.2H42.4V83.52h1.742Z" transform="translate(-36.568 -70.589)" fill="#5c5f62"/>
      <rect id="Rectangle_16081" data-name="Rectangle 16081" width="0.207" height="0.65" transform="translate(7.165 13.097)" fill="#5c5f62"/>
      <rect id="Rectangle_16082" data-name="Rectangle 16082" width="0.221" height="0.65" transform="translate(6.819 13.097)" fill="#5c5f62"/>
      <path id="Path_22143" data-name="Path 22143" d="M44.46,86.337a.348.348,0,1,0-.348-.348A.348.348,0,0,0,44.46,86.337Zm0-.479a.131.131,0,1,1-.131.131A.132.132,0,0,1,44.46,85.858Z" transform="translate(-38.19 -72.574)" fill="#5c5f62"/>
      <path id="Path_22144" data-name="Path 22144" d="M44.354,71.975H42.2V73.4h2.156Zm-.208,1.2H42.4v-1h1.742Z" transform="translate(-36.568 -60.993)" fill="#5c5f62"/>
      <rect id="Rectangle_16083" data-name="Rectangle 16083" width="0.207" height="0.649" transform="translate(7.165 11.355)" fill="#5c5f62"/>
      <rect id="Rectangle_16084" data-name="Rectangle 16084" width="0.221" height="0.649" transform="translate(6.819 11.355)" fill="#5c5f62"/>
      <path id="Path_22145" data-name="Path 22145" d="M44.46,74.96a.348.348,0,1,0-.348-.348A.348.348,0,0,0,44.46,74.96Zm0-.479a.131.131,0,1,1-.131.131A.132.132,0,0,1,44.46,74.481Z" transform="translate(-38.19 -62.933)" fill="#5c5f62"/>
      <path id="Path_22146" data-name="Path 22146" d="M44.354,60.561H42.2v1.424h2.156Zm-.208,1.2H42.4v-1h1.742Z" transform="translate(-36.568 -51.321)" fill="#5c5f62"/>
      <rect id="Rectangle_16085" data-name="Rectangle 16085" width="0.207" height="0.649" transform="translate(7.165 9.614)" fill="#5c5f62"/>
      <rect id="Rectangle_16086" data-name="Rectangle 16086" width="0.221" height="0.649" transform="translate(6.819 9.614)" fill="#5c5f62"/>
      <path id="Path_22147" data-name="Path 22147" d="M44.46,63.548a.348.348,0,1,0-.348-.348A.348.348,0,0,0,44.46,63.548Zm0-.479a.131.131,0,1,1-.131.131A.131.131,0,0,1,44.46,63.069Z" transform="translate(-38.19 -53.262)" fill="#5c5f62"/>
      <path id="Path_22148" data-name="Path 22148" d="M68.867,54.583h-3.1a.4.4,0,0,0-.4.4V60.9a.4.4,0,0,0,.4.4h3.1a.4.4,0,0,0,.4-.4V54.986A.4.4,0,0,0,68.867,54.583Zm-.26,6.068h-2.6V55.233h2.6Z" transform="translate(-56.195 -46.255)" fill="#5c5f62"/>
      <path id="Path_22149" data-name="Path 22149" d="M73.225,83.3H71.069v1.425h2.156Zm-.207,1.2H71.276V83.52h1.742Z" transform="translate(-61.034 -70.589)" fill="#5c5f62"/>
      <rect id="Rectangle_16087" data-name="Rectangle 16087" width="0.207" height="0.65" transform="translate(11.57 13.097)" fill="#5c5f62"/>
      <rect id="Rectangle_16088" data-name="Rectangle 16088" width="0.221" height="0.65" transform="translate(11.224 13.097)" fill="#5c5f62"/>
      <path id="Path_22150" data-name="Path 22150" d="M73.331,86.337a.348.348,0,1,0-.348-.348A.348.348,0,0,0,73.331,86.337Zm0-.479a.131.131,0,1,1-.131.131A.131.131,0,0,1,73.331,85.858Z" transform="translate(-62.656 -72.574)" fill="#5c5f62"/>
      <path id="Path_22151" data-name="Path 22151" d="M73.225,71.975H71.069V73.4h2.156Zm-.207,1.2H71.276v-1h1.742Z" transform="translate(-61.034 -60.993)" fill="#5c5f62"/>
      <rect id="Rectangle_16089" data-name="Rectangle 16089" width="0.207" height="0.649" transform="translate(11.57 11.355)" fill="#5c5f62"/>
      <rect id="Rectangle_16090" data-name="Rectangle 16090" width="0.221" height="0.649" transform="translate(11.224 11.355)" fill="#5c5f62"/>
      <path id="Path_22152" data-name="Path 22152" d="M73.331,74.96a.348.348,0,1,0-.348-.348A.348.348,0,0,0,73.331,74.96Zm0-.479a.131.131,0,1,1-.131.131A.132.132,0,0,1,73.331,74.481Z" transform="translate(-62.656 -62.933)" fill="#5c5f62"/>
      <path id="Path_22153" data-name="Path 22153" d="M73.225,60.561H71.069v1.424h2.156Zm-.207,1.2H71.276v-1h1.742Z" transform="translate(-61.034 -51.321)" fill="#5c5f62"/>
      <rect id="Rectangle_16091" data-name="Rectangle 16091" width="0.207" height="0.649" transform="translate(11.57 9.614)" fill="#5c5f62"/>
      <rect id="Rectangle_16092" data-name="Rectangle 16092" width="0.221" height="0.649" transform="translate(11.224 9.614)" fill="#5c5f62"/>
      <path id="Path_22154" data-name="Path 22154" d="M73.331,63.548a.348.348,0,1,0-.348-.348A.348.348,0,0,0,73.331,63.548Zm0-.479a.131.131,0,1,1-.131.131A.131.131,0,0,1,73.331,63.069Z" transform="translate(-62.656 -53.262)" fill="#5c5f62"/>
      <path id="Path_22155" data-name="Path 22155" d="M26.071,27.886V25.353l2.745,2.533h1.125l-3.369-3.108a.932.932,0,1,0-1.767,0l-3.369,3.108h1.125l2.745-2.533v2.533h.763Z" transform="translate(-18.974 -19.957)" fill="#5c5f62"/>
      <path id="Path_22156" data-name="Path 22156" d="M7.116,7.692l1.018-.939a1.777,1.777,0,0,1,.1-3.551c.049,0,.1,0,.147.008a.578.578,0,0,0,.607-.435,2.136,2.136,0,0,1,3.566-1.009.578.578,0,0,0,.522.152,1.8,1.8,0,0,1,.365-.038,1.765,1.765,0,0,1,1.6,1.007.576.576,0,0,0,.578.323,1.777,1.777,0,1,1,.275,3.542l1.018.939a2.933,2.933,0,0,0-.89-5.638.282.282,0,0,1-.207-.115A2.951,2.951,0,0,0,13.437.724q-.1,0-.2.007a.282.282,0,0,1-.189-.057A3.292,3.292,0,0,0,8.069,1.909a.282.282,0,0,1-.219.161,2.933,2.933,0,0,0-.734,5.622Z" transform="translate(-5.297)" fill="#5c5f62"/>
    </g>
  </g>
</svg>
