<svg xmlns="http://www.w3.org/2000/svg" xmlns:xlink="http://www.w3.org/1999/xlink" width="35.027" height="31.179" viewBox="0 0 35.027 31.179">
  <defs>
    <clipPath id="clip-path">
      <path id="Path_22131" data-name="Path 22131" d="M7.605,36.637.422,24.194a3.147,3.147,0,0,1,0-3.147L7.605,8.6a3.147,3.147,0,0,1,2.725-1.573H24.7A3.147,3.147,0,0,1,27.423,8.6l7.183,12.443a3.147,3.147,0,0,1,0,3.147L27.423,36.637A3.146,3.146,0,0,1,24.7,38.21H10.331a3.147,3.147,0,0,1-2.725-1.573" transform="translate(-0.001 -7.031)"/>
    </clipPath>
  </defs>
  <g id="google-gke-svgrepo-com" transform="translate(-0.001 -7.031)">
    <path id="Path_22129" data-name="Path 22129" d="M7.605,36.637.422,24.194a3.147,3.147,0,0,1,0-3.147L7.605,8.6a3.147,3.147,0,0,1,2.725-1.573H24.7A3.147,3.147,0,0,1,27.423,8.6l7.183,12.443a3.147,3.147,0,0,1,0,3.147L27.423,36.637A3.146,3.146,0,0,1,24.7,38.21H10.331a3.147,3.147,0,0,1-2.725-1.573" transform="translate(0 0)" fill="#26a0f1"/>
    <g id="Group_165395" data-name="Group 165395" transform="translate(0.001 7.031)" clip-path="url(#clip-path)">
      <path id="Path_22130" data-name="Path 22130" d="M61.891,49.55l-9.419-9.419L45.458,37l-6.7,3.642-.281,8.029L50.116,60.312l4.556-.041Z" transform="translate(-27.945 -28.799)" opacity="0.07"/>
    </g>
    <path id="Path_22132" data-name="Path 22132" d="M51.7,37.8,45.217,34.06a.739.739,0,0,0-.739,0L38,37.8a.738.738,0,0,0-.369.64v7.481a.738.738,0,0,0,.369.64L44.478,50.3a.739.739,0,0,0,.739,0L51.7,46.562a.738.738,0,0,0,.369-.64V38.441a.738.738,0,0,0-.369-.64m-.889,7.4L48.546,43.9V40.463L45.208,42.39v3.856l2.977-1.719,2.26,1.305-5.6,3.232-5.6-3.232,2.26-1.305,2.977,1.719V42.39l-3.338-1.927V43.9l-2.26,1.305V38.741l5.6-3.232v2.61l-2.977,1.719,3.338,1.927,3.338-1.927-2.977-1.719v-2.61l5.6,3.232v6.465" transform="translate(-27.332 -19.561)" fill="#fff"/>
  </g>
</svg>
