<svg xmlns="http://www.w3.org/2000/svg" width="11.458" height="15.188" viewBox="0 0 11.458 15.188">
  <g id="nas" transform="translate(-63 511.769)">
    <path id="Path_22164" data-name="Path 22164" d="M63.555-511.734a.85.85,0,0,0-.519.519A17.649,17.649,0,0,0,63-509.368c0,1.71,0,1.748.059,1.808a.236.236,0,0,0,.315,0c.053-.059.056-.145.071-1.808.015-1.692.018-1.748.074-1.811.142-.157-.163-.148,5.218-.148h5l.1.068a.5.5,0,0,1,.137.14,13.333,13.333,0,0,1,.039,1.769c0,1.671,0,1.7.062,1.775a.222.222,0,0,0,.324.018c.059-.059.059-.1.059-1.82v-1.757l-.071-.148A.875.875,0,0,0,74-511.7l-.122-.065-5.105-.006C64.529-511.773,63.65-511.767,63.555-511.734Z"/>
    <path id="Path_22165" data-name="Path 22165" d="M149.134-479.872c-.134.071-.134.074-.134,1.158v1.036l.074.071a.194.194,0,0,0,.285.018c.071-.056.071-.068.086-.7l.015-.647.454.65c.252.359.484.677.516.7a.2.2,0,0,0,.273-.009l.077-.059v-2.107l-.074-.071a.163.163,0,0,0-.232-.042c-.125.056-.14.14-.14.79v.611l-.478-.68C149.332-479.9,149.282-479.955,149.134-479.872Z" transform="translate(-83.447 -30.918)"/>
    <path id="Path_22166" data-name="Path 22166" d="M226.735-479.781a.388.388,0,0,0-.107.08c-.027.033-.217.5-.422,1.042-.338.891-.371.994-.344,1.077a.2.2,0,0,0,.211.148c.1,0,.184-.089.261-.294l.065-.181h.849l.065.181c.08.211.157.294.273.294a.216.216,0,0,0,.2-.267c-.009-.059-.644-1.76-.718-1.918S226.875-479.837,226.735-479.781Zm.22,1.1a2.549,2.549,0,0,1,.11.321,1.335,1.335,0,0,1-.249,0l-.237-.009.122-.321a2.49,2.49,0,0,1,.128-.312C226.83-478.994,226.889-478.852,226.955-478.683Z" transform="translate(-158.021 -31.018)"/>
    <path id="Path_22167" data-name="Path 22167" d="M306.692-479.81a.674.674,0,0,0-.573.793c.056.252.193.359.712.555.389.145.481.258.35.424a.56.56,0,0,1-.772-.053.234.234,0,0,0-.291-.062c-.16.083-.166.211-.018.374a1.139,1.139,0,0,0,1.012.3.814.814,0,0,0,.49-.386c.208-.395.009-.784-.493-.971-.454-.169-.552-.223-.552-.3,0-.258.327-.312.671-.11.154.089.234.089.324,0,.107-.1.095-.211-.03-.329A1.184,1.184,0,0,0,306.692-479.81Z" transform="translate(-235.781 -30.997)"/>
    <path id="Path_22168" data-name="Path 22168" d="M95.205-382.97a.215.215,0,0,0-.059.35l.068.065h9.3l.062-.065a.214.214,0,0,0-.015-.306L104.49-383l-4.61,0C97.3-383,95.241-382.985,95.205-382.97Z" transform="translate(-31.128 -124.946)"/>
    <path id="Path_22169" data-name="Path 22169" d="M95.341-349.992a.738.738,0,0,0-.309.324c-.024.056-.033,1.27-.033,3.868a25.619,25.619,0,0,0,.056,3.894.652.652,0,0,0,.309.3c.116.045,2.716.045,2.832,0a.624.624,0,0,0,.309-.309,7.539,7.539,0,0,0,.056-1.864c0-1.1-.012-1.766-.03-1.8a.26.26,0,0,0-.137-.089c-.095-.033-.116-.03-.187.021l-.077.059-.015,1.736a11.059,11.059,0,0,1-.056,1.784c-.036.044-.163.05-1.279.05-1.161,0-1.241,0-1.285-.053a27.87,27.87,0,0,1-.05-3.737,23.6,23.6,0,0,1,.053-3.728c.05-.044.181-.05,1.288-.05s1.238.006,1.273.05a9.143,9.143,0,0,1,.056,1.606l.015,1.558.08.059a.139.139,0,0,0,.172.024c.184-.062.175.009.175-1.71a6.371,6.371,0,0,0-.053-1.692A.624.624,0,0,0,98.2-350,26.935,26.935,0,0,0,95.341-349.992Z" transform="translate(-31.05 -156.933)"/>
    <path id="Path_22170" data-name="Path 22170" d="M232.5-349.95a.639.639,0,0,0-.3.362c-.021.08-.027,1.306-.024,3.885l.009,3.77.089.131a.842.842,0,0,0,.208.193c.119.068.125.068,1.478.068,1.312,0,1.362,0,1.478-.059a.656.656,0,0,0,.208-.2l.086-.139v-3.823a36.146,36.146,0,0,0-.047-3.921.521.521,0,0,0-.255-.261c-.1-.053-.193-.056-1.469-.056A5.867,5.867,0,0,0,232.5-349.95Zm2.749.43c.027.027.036.9.036,3.737a32.032,32.032,0,0,1-.048,3.749c-.039.042-.2.048-1.285.048a7.555,7.555,0,0,1-1.273-.036c-.05-.05-.05-7.447,0-7.5A21.837,21.837,0,0,1,235.252-349.519Z" transform="translate(-164.154 -156.967)"/>
    <path id="Path_22171" data-name="Path 22171" d="M268.728-317.914a.7.7,0,0,0-.145,1.116.7.7,0,0,0,1.2-.5.673.673,0,0,0-.718-.7A.567.567,0,0,0,268.728-317.914Zm.525.445a.282.282,0,0,1,.086.166.306.306,0,0,1-.267.252.25.25,0,0,1-.237-.243A.239.239,0,0,1,269.253-317.469Z" transform="translate(-199.275 -188.017)"/>
    <path id="Path_22172" data-name="Path 22172" d="M268.293-145.008c-.077.077-.089.107-.074.187.036.187.077.2.712.2.558,0,.573,0,.635-.068a.253.253,0,0,0,0-.335c-.056-.05-.122-.056-.623-.065l-.561-.009Z" transform="translate(-199.122 -355.785)"/>
    <path id="Path_22173" data-name="Path 22173" d="M268.656-111.941a.271.271,0,0,0-.056.163.271.271,0,0,0,.056.163c.05.056.086.059.644.059s.591,0,.647-.059a.238.238,0,0,0,.059-.163.238.238,0,0,0-.059-.163c-.056-.056-.1-.059-.647-.059S268.707-112,268.656-111.941Z" transform="translate(-199.497 -387.902)"/>
    <path id="Path_22174" data-name="Path 22174" d="M370.4-349.933a.689.689,0,0,0-.4.641.694.694,0,0,0,1.063.588.7.7,0,0,0-.062-1.223A.791.791,0,0,0,370.4-349.933Zm.433.427a.329.329,0,0,1,.116.226.3.3,0,0,1-.229.229c-.08.015-.11,0-.187-.071a.227.227,0,0,1-.015-.347A.262.262,0,0,1,370.834-349.506Z" transform="translate(-297.887 -156.977)"/>
    <path id="Path_22175" data-name="Path 22175" d="M63.148-347.846a.324.324,0,0,0-.095.062A32.915,32.915,0,0,0,63-343.432c0,4.268,0,4.307.062,4.441a.86.86,0,0,0,.742.5l.211.021.1.327c.107.344.157.433.291.531.074.056.131.062.665.071a4.433,4.433,0,0,0,.695-.021c.166-.05.249-.178.371-.57l.11-.353H71.21l.113.362c.122.4.223.537.413.573a6.326,6.326,0,0,0,.665.009c.519-.009.576-.015.65-.071.134-.1.184-.187.291-.531l.1-.327.211-.021a.86.86,0,0,0,.742-.5c.059-.134.062-.172.062-4.441a35.067,35.067,0,0,0-.05-4.354.374.374,0,0,0-.134-.065c-.065-.018-.1,0-.172.068l-.089.089v4.236c0,4.622.012,4.334-.169,4.455-.08.053-.229.056-5.058.065-3.948.006-5,0-5.091-.03a.367.367,0,0,1-.181-.14l-.068-.1v-8.486l-.086-.086C63.273-347.867,63.234-347.879,63.148-347.846Zm2.612,9.38c0,.015-.036.128-.077.252l-.077.232h-.469a2.826,2.826,0,0,1-.487-.024c-.009-.015-.047-.128-.089-.252l-.071-.229h.635A4.787,4.787,0,0,1,65.76-338.467Zm7.136.208c-.042.125-.08.237-.089.252a2.826,2.826,0,0,1-.487.024h-.469l-.077-.232c-.042-.125-.077-.237-.077-.252a4.787,4.787,0,0,1,.635-.021h.635Z" transform="translate(0 -159.04)"/>
    <path id="Path_22176" data-name="Path 22176" d="M131.559-317.887a.717.717,0,0,0-.258,1.116.641.641,0,0,0,.54.249.67.67,0,0,0,.65-.427.721.721,0,0,0-.374-.941A1.048,1.048,0,0,0,131.559-317.887Zm.469.5a.265.265,0,0,1-.024.338.232.232,0,0,1-.4-.151.242.242,0,0,1,.128-.249A.284.284,0,0,1,132.028-317.391Z" transform="translate(-66.11 -188.089)"/>
    <path id="Path_22177" data-name="Path 22177" d="M370.442-285.587a.665.665,0,0,0-.4.35.69.69,0,0,0,.62,1.012.7.7,0,0,0,.5-1.178A.733.733,0,0,0,370.442-285.587Zm.347.463a.246.246,0,0,1,.092.3.24.24,0,0,1-.4.074C370.281-284.948,370.54-285.26,370.789-285.124Z" transform="translate(-297.848 -219.439)"/>
    <path id="Path_22178" data-name="Path 22178" d="M370.243-220.95a.527.527,0,0,0-.172.154c-.071.1-.071.113-.071.822s0,.718.068.813c.122.187.229.223.629.223s.493-.033.62-.2c.059-.08.062-.128.071-.8s.006-.715-.056-.825c-.11-.2-.229-.24-.638-.24A1.105,1.105,0,0,0,370.243-220.95Zm.706.974v.579h-.5v-1.158h.5Z" transform="translate(-297.887 -282.138)"/>
    <path id="Path_22179" data-name="Path 22179" d="M131.135-145.007a.219.219,0,0,0-.059.365c.071.074.077.074.638.074s.567,0,.638-.074A.212.212,0,0,0,132.3-145,4.175,4.175,0,0,0,131.135-145.007Z" transform="translate(-65.983 -355.839)"/>
    <path id="Path_22180" data-name="Path 22180" d="M370.214-133.817a.546.546,0,0,0-.154.154c-.053.092-.059.151-.059.81s.006.718.059.81c.113.181.2.214.641.214.353,0,.4-.006.487-.068.193-.131.208-.193.208-.95s-.015-.825-.19-.95c-.083-.059-.134-.065-.493-.074S370.3-133.873,370.214-133.817Zm.736.965v.579h-.5v-1.158h.5Z" transform="translate(-297.887 -366.679)"/>
    <path id="Path_22181" data-name="Path 22181" d="M131.1-111.932a.218.218,0,0,0,0,.312c.065.062.095.065.647.065s.582,0,.644-.068a.214.214,0,0,0,0-.3l-.059-.077h-.588C131.176-112,131.164-112,131.1-111.932Z" transform="translate(-66.018 -387.902)"/>
  </g>
</svg>
