<svg id="domains-major-svgrepo-com" xmlns="http://www.w3.org/2000/svg" width="14.671" height="14.672" viewBox="0 0 14.671 14.672">
  <path id="Path_22117" data-name="Path 22117" d="M10.2,5.868c.044.461.071.948.071,1.467a.734.734,0,1,1-1.467,0,13.871,13.871,0,0,0-.077-1.467H5.936a14.264,14.264,0,0,0,0,2.934h1.4a.734.734,0,1,1,0,1.467H6.174A9.137,9.137,0,0,0,7.336,13.2s.579.01.679,0a.734.734,0,0,1,.107,1.463c-.069.005-.787,0-.787,0a7.336,7.336,0,1,1,7.336-7.336,7,7,0,0,1-.058.819.734.734,0,0,1-1.458-.171,5.394,5.394,0,0,0,.048-.648,5.863,5.863,0,0,0-.193-1.467ZM7.327,1.494A9.351,9.351,0,0,0,6.18,4.4h2.3A9.313,9.313,0,0,0,7.327,1.494ZM1.66,8.8h2.8q-.069-.73-.07-1.464t.07-1.47H1.66a5.675,5.675,0,0,0,0,2.934Zm.6,1.467a5.891,5.891,0,0,0,3.255,2.642,11.952,11.952,0,0,1-.842-2.642ZM4.675,4.4a11.909,11.909,0,0,1,.844-2.643A5.89,5.89,0,0,0,2.261,4.4Zm5.31,0H12.41a5.89,5.89,0,0,0-3.275-2.65A11.831,11.831,0,0,1,9.985,4.4Z" fill="#5c5f62"/>
  <path id="Path_22118" data-name="Path 22118" d="M14.532,17.262l-1.871-4.115a.367.367,0,0,1,.486-.486l4.115,1.871a.367.367,0,0,1,.012.662L16,15.832a.367.367,0,0,0-.164.164l-.639,1.278a.367.367,0,0,1-.662-.012Z" transform="translate(-3.365 -3.365)" fill="#5c5f62"/>
</svg>
