<svg xmlns="http://www.w3.org/2000/svg" width="13.687" height="13.694" viewBox="0 0 13.687 13.694">
  <g id="hosting-internet-network-svgrepo-com" transform="translate(-152.16 -151.98)">
    <path id="Path_22119" data-name="Path 22119" d="M152.3,618.75v.9a.59.59,0,0,0,.59.59h12.5a.59.59,0,0,0,.59-.59v-.9Z" transform="translate(-0.14 -457.587)" fill="#5c5f62"/>
    <path id="Path_22120" data-name="Path 22120" d="M340.258,721.544a.789.789,0,0,0-.612-.495c-.538-.086-1.394-.315-1.527-.915a1.1,1.1,0,0,1,.047-.594h-2.2a1.1,1.1,0,0,1,.047.594c-.133.6-.989.829-1.527.915a.789.789,0,0,0-.612.495l-.06.154a.272.272,0,0,0,.253.369h6a.271.271,0,0,0,.253-.369Z" transform="translate(-178.06 -556.394)" fill="#5c5f62"/>
    <path id="Path_22121" data-name="Path 22121" d="M746.111,243.873a.212.212,0,1,0-.212-.212A.212.212,0,0,0,746.111,243.873Z" transform="translate(-582.058 -89.669)" fill="#5c5f62"/>
    <circle id="Ellipse_70" data-name="Ellipse 70" cx="0.196" cy="0.196" r="0.196" transform="translate(158.847 155.401) rotate(-13.286)" fill="#5c5f62"/>
    <path id="Path_22122" data-name="Path 22122" d="M232.6,243.449a.212.212,0,1,0,.212.212A.212.212,0,0,0,232.6,243.449Z" transform="translate(-78.646 -89.669)" fill="#5c5f62"/>
    <path id="Path_22123" data-name="Path 22123" d="M232.6,390.7a.212.212,0,1,0,.212.212A.212.212,0,0,0,232.6,390.7Z" transform="translate(-78.646 -234.019)" fill="#5c5f62"/>
    <path id="Path_22124" data-name="Path 22124" d="M420.89,245.813l-.355-.263a1.951,1.951,0,0,0-2.32,0l-.355.263a.454.454,0,0,0-.183.364v.923a2.114,2.114,0,0,0,.749,1.616l.947.8a0,0,0,0,0,.005,0l.947-.8a2.114,2.114,0,0,0,.749-1.616v-.923A.454.454,0,0,0,420.89,245.813Zm-1.269,1.731v.683a.246.246,0,0,1-.492,0v-.683a.687.687,0,1,1,.492,0Z" transform="translate(-260.292 -91.355)" fill="#5c5f62"/>
    <path id="Path_22125" data-name="Path 22125" d="M746.111,391.12a.212.212,0,1,0-.212-.212A.212.212,0,0,0,746.111,391.12Z" transform="translate(-582.058 -234.02)" fill="#5c5f62"/>
    <path id="Path_22126" data-name="Path 22126" d="M165.844,152.57a.59.59,0,0,0-.59-.59h-12.5a.59.59,0,0,0-.59.59v8.1h13.684Zm-10.659,6.793h-1.73a.246.246,0,1,1,0-.492h1.73a.246.246,0,0,1,0,.492Zm5.165-1.627-.947.8a.494.494,0,0,1-.641,0l-.947-.8a2.6,2.6,0,0,1-.863-1.433h-.805a.17.17,0,0,0-.169.169.662.662,0,0,1-.661.661h-.706a.7.7,0,1,1,0-.492h.706a.17.17,0,0,0,.169-.169.662.662,0,0,1,.661-.661h.746q0-.033,0-.066v-.924a.948.948,0,0,1,.19-.568H154.6a.7.7,0,1,1,.012-.492h3.067a2.441,2.441,0,0,1,2.852.038l.355.263a.948.948,0,0,1,.349.513h.618a.17.17,0,0,0,.169-.169.662.662,0,0,1,.661-.661h.706a.7.7,0,1,1,0,.492h-.706a.17.17,0,0,0-.169.169.662.662,0,0,1-.661.661h-.584v.678a2.61,2.61,0,0,1-.153.88h2.28a.7.7,0,1,1-.012.492h-2.5A2.611,2.611,0,0,1,160.35,157.737Zm4.2,1.627h-1.73a.246.246,0,1,1,0-.492h1.73a.246.246,0,0,1,0,.492Z" fill="#5c5f62"/>
  </g>
</svg>
