<svg xmlns="http://www.w3.org/2000/svg" width="13.057" height="18.489" viewBox="0 0 13.057 18.489">
  <g id="Group_165397" data-name="Group 165397" transform="translate(-10 -4.511)">
    <g id="servers-svgrepo-com" transform="translate(10 8.394)">
      <path id="Path_22159" data-name="Path 22159" d="M12.475,3H.582A.582.582,0,0,0,0,3.582V6.287a.57.57,0,0,0,.009.1H13.048a.57.57,0,0,0,.009-.1V3.582A.582.582,0,0,0,12.475,3ZM2.176,5.9a.967.967,0,1,1,.967-.967A.968.968,0,0,1,2.176,5.9ZM7.5,5.66a.242.242,0,1,1,.242-.242A.242.242,0,0,1,7.5,5.66Zm.484-.967a.242.242,0,1,1,.242-.242A.242.242,0,0,1,7.979,4.693Zm.484.967A.242.242,0,1,1,8.7,5.418.242.242,0,0,1,8.463,5.66Zm.484-.967a.242.242,0,1,1,.242-.242A.242.242,0,0,1,8.946,4.693Zm.484.967a.242.242,0,1,1,.242-.242A.242.242,0,0,1,9.43,5.66Zm.484-.967a.242.242,0,1,1,.242-.242A.242.242,0,0,1,9.913,4.693Zm.484.967a.242.242,0,1,1,.242-.242A.242.242,0,0,1,10.4,5.66Zm.484-.967a.242.242,0,1,1,.242-.242A.242.242,0,0,1,10.881,4.693Zm.484.967a.242.242,0,1,1,.242-.242A.242.242,0,0,1,11.364,5.66Zm.484-.967a.242.242,0,1,1,.242-.242A.242.242,0,0,1,11.848,4.693Z" fill="#5c5f62"/>
      <circle id="Ellipse_72" data-name="Ellipse 72" cx="0.353" cy="0.353" r="0.353" transform="translate(1.766 7.966)" fill="#5c5f62"/>
      <circle id="Ellipse_73" data-name="Ellipse 73" cx="0.353" cy="0.353" r="0.353" transform="translate(1.766 11.499)" fill="#5c5f62"/>
      <circle id="Ellipse_74" data-name="Ellipse 74" cx="0.353" cy="0.353" r="0.353" transform="translate(1.766 4.581)" fill="#5c5f62"/>
      <path id="Path_22160" data-name="Path 22160" d="M.009,19A.57.57,0,0,0,0,19.1V21.8a.57.57,0,0,0,.009.1H13.048a.57.57,0,0,0,.009-.1V19.1a.57.57,0,0,0-.009-.1Zm2.167,2.418a.967.967,0,1,1,.967-.967A.968.968,0,0,1,2.176,21.418ZM7.5,21.176a.242.242,0,1,1,.242-.242A.242.242,0,0,1,7.5,21.176Zm.484-.967a.242.242,0,1,1,.242-.242A.242.242,0,0,1,7.979,20.209Zm.484.967a.242.242,0,1,1,.242-.242A.242.242,0,0,1,8.463,21.176Zm.484-.967a.242.242,0,1,1,.242-.242A.242.242,0,0,1,8.946,20.209Zm.484.967a.242.242,0,1,1,.242-.242A.242.242,0,0,1,9.43,21.176Zm.484-.967a.242.242,0,1,1,.242-.242A.242.242,0,0,1,9.913,20.209Zm.484.967a.242.242,0,1,1,.242-.242A.242.242,0,0,1,10.4,21.176Zm.484-.967a.242.242,0,1,1,.242-.242A.242.242,0,0,1,10.881,20.209Zm.484.967a.242.242,0,1,1,.242-.242A.242.242,0,0,1,11.364,21.176Zm.484-.967a.242.242,0,1,1,.242-.242A.242.242,0,0,1,11.848,20.209Z" transform="translate(0 -12.131)" fill="#5c5f62"/>
      <path id="Path_22161" data-name="Path 22161" d="M.009,33A.57.57,0,0,0,0,33.1V35.8a.582.582,0,0,0,.582.582H.725a.967.967,0,1,0,1.934,0H10.4a.967.967,0,1,0,1.934,0h.144a.582.582,0,0,0,.582-.582V33.1a.57.57,0,0,0-.009-.1Zm11.839.725a.242.242,0,1,1-.242.242A.242.242,0,0,1,11.848,33.725Zm-.484.967a.242.242,0,1,1-.242.242A.242.242,0,0,1,11.364,34.693Zm-.484-.967a.242.242,0,1,1-.242.242A.242.242,0,0,1,10.881,33.725ZM1.693,36.869a.484.484,0,0,1-.484-.484h.967A.484.484,0,0,1,1.693,36.869Zm.484-1.451a.967.967,0,1,1,.967-.967A.968.968,0,0,1,2.176,35.418ZM7.5,35.176a.242.242,0,1,1,.242-.242A.242.242,0,0,1,7.5,35.176Zm.484-.967a.242.242,0,1,1,.242-.242A.242.242,0,0,1,7.979,34.209Zm.484.967a.242.242,0,1,1,.242-.242A.242.242,0,0,1,8.463,35.176Zm.484-.967a.242.242,0,1,1,.242-.242A.242.242,0,0,1,8.946,34.209Zm.484.967a.242.242,0,1,1,.242-.242A.242.242,0,0,1,9.43,35.176Zm.484-.967a.242.242,0,1,1,.242-.242A.242.242,0,0,1,9.913,34.209Zm.242.725a.242.242,0,1,1,.242.242A.242.242,0,0,1,10.155,34.934Zm1.209,1.934a.484.484,0,0,1-.484-.484h.967A.484.484,0,0,1,11.364,36.869Z" transform="translate(0 -22.746)" fill="#5c5f62"/>
    </g>
    <g id="layer1" transform="translate(-386 -339.503)">
      <path id="path453507" d="M401.467,344.014a2.027,2.027,0,0,0-2.022,2.022v0c0,.018,0,.036.005.055A1.715,1.715,0,0,0,398,347.77a1.738,1.738,0,0,0,1.733,1.733h4.911a1.449,1.449,0,0,0,1.444-1.444,1.429,1.429,0,0,0-1.163-1.387c0-.018.007-.036.007-.055h0a1.449,1.449,0,0,0-1.444-1.444h0a1.449,1.449,0,0,0-.2.035,2.007,2.007,0,0,0-1.816-1.191Zm0,.578a1.442,1.442,0,0,1,1.379,1.015.289.289,0,0,0,.37.187.86.86,0,0,1,1.14.819h0a.858.858,0,0,1-.03.217.289.289,0,0,0,.3.363h.016a.866.866,0,0,1,0,1.733h-4.911a1.156,1.156,0,0,1,0-2.311h.019a.289.289,0,0,0,.293-.34,1.439,1.439,0,0,1-.023-.239h0A1.44,1.44,0,0,1,401.467,344.592Z" transform="translate(0 0)" fill="#5c5f62" fill-rule="evenodd"/>
    </g>
  </g>
</svg>
