<svg xmlns="http://www.w3.org/2000/svg" width="14.184" height="12.691" viewBox="0 0 14.184 12.691">
  <path id="dns-settings-major-svgrepo-com" d="M1,3.12A1.12,1.12,0,0,1,2.12,2h11.2a1.12,1.12,0,0,1,1.12,1.12V4.613a1.12,1.12,0,0,1-1.12,1.12H2.12A1.12,1.12,0,0,1,1,4.613Zm2.613.747a.747.747,0,1,1-.747-.747A.747.747,0,0,1,3.613,3.866ZM1,7.6a1.12,1.12,0,0,1,1.12-1.12H6.653a1.12,1.12,0,0,1,1,1.62L6.909,9.592a1.12,1.12,0,0,1-1,.62H2.12A1.12,1.12,0,0,1,1,9.092Zm2.613.747A.747.747,0,1,1,2.866,7.6.747.747,0,0,1,3.613,8.345ZM1,12.078a1.12,1.12,0,0,1,1.12-1.12H6.054a1.12,1.12,0,0,1,1.1.9l.3,1.493a1.12,1.12,0,0,1-1.1,1.339H2.12A1.12,1.12,0,0,1,1,13.571Zm2.613.747a.747.747,0,1,1-.747-.747A.747.747,0,0,1,3.613,12.824ZM9.33,10.256l-.509-.32a.737.737,0,0,1-.337-.456.706.706,0,0,1,.1-.554.734.734,0,0,1,.477-.317.764.764,0,0,1,.566.112l.509.319a2.6,2.6,0,0,1,.946-.5V7.95a.713.713,0,0,1,.217-.512.757.757,0,0,1,1.051,0,.714.714,0,0,1,.217.512v.585a2.606,2.606,0,0,1,.946.5l.509-.32a.761.761,0,0,1,.549-.08.741.741,0,0,1,.452.313.705.705,0,0,1,.105.53.724.724,0,0,1-.3.454l-.509.32a2.46,2.46,0,0,1,0,1.4l.509.321a.737.737,0,0,1,.337.456.706.706,0,0,1-.1.554.733.733,0,0,1-.477.317.761.761,0,0,1-.566-.112l-.509-.32a2.6,2.6,0,0,1-.946.5v.585a.714.714,0,0,1-.217.512.757.757,0,0,1-1.051,0,.714.714,0,0,1-.217-.512v-.585a2.615,2.615,0,0,1-.946-.5l-.509.32a.761.761,0,0,1-.56.1.746.746,0,0,1-.468-.314.708.708,0,0,1-.1-.545.724.724,0,0,1,.324-.455l.508-.321a2.461,2.461,0,0,1,0-1.4Zm2.494-.378a1.082,1.082,0,1,0,1.11,1.082,1.1,1.1,0,0,0-1.11-1.082Z" transform="translate(-1 -2)" fill="#5c5f62" fill-rule="evenodd"/>
</svg>
