<svg xmlns="http://www.w3.org/2000/svg" width="13" height="13" viewBox="0 0 13 13">
  <g id="Layer_2" data-name="Layer 2" transform="translate(0 -0.486)">
    <g id="invisible_box" data-name="invisible box" transform="translate(0 0.49)">
      <rect id="Rectangle_16076" data-name="Rectangle 16076" width="13" height="13" transform="translate(0 -0.003)" fill="none"/>
    </g>
    <g id="icons_Q2" data-name="icons Q2" transform="translate(0.835 0.68)">
      <g id="Group_165397" data-name="Group 165397">
        <path id="Path_22133" data-name="Path 22133" d="M7.454,26a.557.557,0,0,0-.557.557V27.67H4.114V26.557a.557.557,0,1,0-1.114,0v3.9a.557.557,0,0,0,.557.557h3.9a.557.557,0,0,0,.557-.557v-3.9A.557.557,0,0,0,7.454,26Z" transform="translate(-3 -19.318)" fill="#5c5f62"/>
        <path id="Path_22134" data-name="Path 22134" d="M31.454,26a.557.557,0,0,0-.557.557V27.67H28.114V26.557a.557.557,0,1,0-1.114,0v3.9a.557.557,0,0,0,.557.557h3.9a.557.557,0,0,0,.557-.557v-3.9A.557.557,0,0,0,31.454,26Z" transform="translate(-20.318 -19.318)" fill="#5c5f62"/>
        <path id="Path_22135" data-name="Path 22135" d="M16.682,5.9v.334l-.724-.724a.529.529,0,0,0-.835.056.585.585,0,0,0,.056.752l1.67,1.643a.529.529,0,0,0,.78,0L19.3,6.315a.585.585,0,0,0,.056-.752.529.529,0,0,0-.835-.056l-.724.724V5.9a3.9,3.9,0,1,0-7.8,0v1.67a.557.557,0,1,0,1.114,0V5.9a2.784,2.784,0,0,1,5.568,0Z" transform="translate(-8.051 -2)" fill="#5c5f62"/>
      </g>
    </g>
  </g>
</svg>
