<svg xmlns="http://www.w3.org/2000/svg" width="13.039" height="14.147" viewBox="0 0 13.039 14.147">
  <g id="Group_503194" data-name="Group 503194" transform="translate(-716.9 -4864.9)">
    <path id="calendar-user-svgrepo-com" d="M5.631,3V5.158M12.208,3V5.158M5.1,15.948h7.63a3.007,3.007,0,0,0,1.387-.157,1.383,1.383,0,0,0,.575-.629,3.887,3.887,0,0,0,.143-1.516V6.74A3.887,3.887,0,0,0,14.7,5.224a1.383,1.383,0,0,0-.575-.629,3.008,3.008,0,0,0-1.387-.157H5.1A3.008,3.008,0,0,0,3.718,4.6a1.383,1.383,0,0,0-.575.629A3.887,3.887,0,0,0,3,6.74v6.905a3.888,3.888,0,0,0,.143,1.516,1.383,1.383,0,0,0,.575.629A3.007,3.007,0,0,0,5.1,15.948Z" transform="translate(714.5 4862.5)" fill="none" stroke="#787878" stroke-linecap="round" stroke-linejoin="round" stroke-width="1.2"/>
    <path id="Path_138637" data-name="Path 138637" d="M692.15,3888.538h10.79" transform="translate(25.951 982.025)" fill="none" stroke="#787878" stroke-width="1.2"/>
  </g>
</svg>
