<svg id="Group_165970" data-name="Group 165970" xmlns="http://www.w3.org/2000/svg" width="12.423" height="12.423" viewBox="0 0 12.423 12.423">
  <path id="Path_7968" data-name="Path 7968" d="M6.211,0c-1.686,0-1.9.008-2.56.037A4.577,4.577,0,0,0,2.143.326a3.041,3.041,0,0,0-1.1.717,3.049,3.049,0,0,0-.717,1.1A4.55,4.55,0,0,0,.037,3.649C.008,4.313,0,4.524,0,6.212s.008,1.9.037,2.56A4.576,4.576,0,0,0,.326,10.28,3.18,3.18,0,0,0,2.142,12.1a4.56,4.56,0,0,0,1.508.289c.663.03.874.037,2.561.037s1.9-.008,2.561-.037a4.585,4.585,0,0,0,1.509-.289A3.18,3.18,0,0,0,12.1,10.28a4.6,4.6,0,0,0,.289-1.508c.03-.662.037-.873.037-2.561s-.008-1.9-.037-2.561A4.591,4.591,0,0,0,12.1,2.143a3.048,3.048,0,0,0-.717-1.1,3.037,3.037,0,0,0-1.1-.717A4.57,4.57,0,0,0,8.771.037C8.108.008,7.9,0,6.21,0h0ZM5.655,1.12h.557c1.658,0,1.855.005,2.509.036a3.442,3.442,0,0,1,1.154.214,1.927,1.927,0,0,1,.714.465,1.919,1.919,0,0,1,.464.714A3.412,3.412,0,0,1,11.268,3.7c.03.655.036.851.036,2.509s-.006,1.855-.036,2.509a3.436,3.436,0,0,1-.214,1.153A2.059,2.059,0,0,1,9.875,11.05a3.417,3.417,0,0,1-1.153.214c-.655.03-.851.036-2.509.036s-1.856-.007-2.51-.036a3.431,3.431,0,0,1-1.153-.214,1.924,1.924,0,0,1-.714-.464,1.926,1.926,0,0,1-.466-.714,3.432,3.432,0,0,1-.214-1.153c-.03-.655-.036-.851-.036-2.51s.006-1.854.036-2.509A3.437,3.437,0,0,1,1.37,2.546a1.927,1.927,0,0,1,.465-.714,1.919,1.919,0,0,1,.714-.464A3.431,3.431,0,0,1,3.7,1.153c.573-.026.8-.034,1.953-.035v0ZM9.528,2.151a.745.745,0,1,0,.745.745.745.745,0,0,0-.745-.745Zm-3.315.871A3.19,3.19,0,1,0,9.4,6.212a3.19,3.19,0,0,0-3.19-3.19Zm0,1.119A2.071,2.071,0,1,1,4.141,6.211,2.071,2.071,0,0,1,6.212,4.141Z" transform="translate(0 0)" fill="#fff"/>
</svg>
