<svg xmlns="http://www.w3.org/2000/svg" width="12.996" height="12.423" viewBox="0 0 12.996 12.423">
  <path id="Path_8435" data-name="Path 8435" d="M2.95,12.423V4.041H.164v8.382ZM1.557,2.9A1.453,1.453,0,1,0,1.576,0a1.452,1.452,0,1,0-.037,2.9h.018Zm2.935,9.527H7.278V7.742a1.909,1.909,0,0,1,.092-.68A1.525,1.525,0,0,1,8.8,6.043c1.008,0,1.411.769,1.411,1.9v4.484H13V7.617c0-2.575-1.374-3.772-3.207-3.772A2.775,2.775,0,0,0,7.259,5.256h.019V4.041H4.492c.037.786,0,8.382,0,8.382Z" transform="translate(0)" fill="#fff"/>
</svg>
