<svg xmlns="http://www.w3.org/2000/svg" width="15.573" height="15.573" viewBox="0 0 15.573 15.573">
  <path id="link" d="M19.832,6.9a4.506,4.506,0,0,0-6.2-.161l0,0L11.347,9.009A4.487,4.487,0,0,0,10.4,10.4a4.475,4.475,0,0,0-1.223.782l0,0L6.9,13.459a4.505,4.505,0,1,0,6.371,6.371l2.278-2.278,0,0a4.474,4.474,0,0,0,.782-1.223,4.487,4.487,0,0,0,1.393-.945L20,13.1l0,0a4.5,4.5,0,0,0-.161-6.2Zm-8.1,11.316h0A2.273,2.273,0,0,1,8.515,15h0l1.662-1.662a4.477,4.477,0,0,0,3.215,3.215L11.73,18.212Zm1.235-4.45a2.262,2.262,0,0,1-.659-1.456,2.265,2.265,0,0,1,2.115,2.115,2.263,2.263,0,0,1-1.456-.659Zm5.387-2.172-.14.14h0L16.55,13.392a4.474,4.474,0,0,0-3.215-3.215L15,8.514h0l.14-.14.006.006a2.273,2.273,0,0,1,3.2,3.2l.006.007Z" transform="translate(-5.577 -5.577)" fill="#1492e6"/>
</svg>
