<svg xmlns="http://www.w3.org/2000/svg" xmlns:xlink="http://www.w3.org/1999/xlink" width="165.708" height="42.694" viewBox="0 0 165.708 42.694">
  <defs>
    <filter id="Path_1492" x="0" y="3.546" width="101.919" height="39.148" filterUnits="userSpaceOnUse">
      <feOffset dy="3" input="SourceAlpha"/>
      <feGaussianBlur stdDeviation="3" result="blur"/>
      <feFlood flood-opacity="0.388"/>
      <feComposite operator="in" in2="blur"/>
      <feComposite in="SourceGraphic"/>
    </filter>
    <radialGradient id="radial-gradient" cx="0.5" cy="0.5" r="0.563" gradientTransform="translate(-0.364 0.055) scale(0.884 0.891)" gradientUnits="objectBoundingBox">
      <stop offset="0" stop-color="#fff"/>
      <stop offset="0.714" stop-color="#29b46c"/>
      <stop offset="0.996" stop-color="#009c4b"/>
    </radialGradient>
  </defs>
  <g id="Group_163729" data-name="Group 163729" transform="translate(9 0)">
    <g id="Group_2141" data-name="Group 2141" transform="translate(0 0)">
      <g id="Group_2140" data-name="Group 2140" transform="translate(0)">
        <path id="Path_1487" data-name="Path 1487" d="M191.985-417.134l-.742-.073-.821.147a8.337,8.337,0,0,0-.909.368l3.3,23.2.824.516.909.145.739-.073.826-.072c.329-2.865.825-6.1,1.567-9.765.575-3.746,1.564-8.446,2.884-14.173a1.66,1.66,0,0,0-.907-.293l-.824-.148-.578.148-.575.293c-.581,2.717-1.156,5.581-1.567,8.664-.577,3.084-1.073,6.314-1.565,9.839l-1.817-18.358A7.642,7.642,0,0,0,191.985-417.134Z" transform="translate(-68.91 425.872)"/>
        <path id="Path_1488" data-name="Path 1488" d="M205.624-416.85l-.5-.073-.822.073c-.25.073-.332.073-.412.221l-.084.293v23.277l.825.293h1.072l.742-.145-.083-23.57Z" transform="translate(-71.008 425.808)"/>
        <path id="Path_1489" data-name="Path 1489" d="M214.553-411.957a8.421,8.421,0,0,1,2.144-1.982l1.73-1.394v-.294l-.247-.808-.744-.66a10.455,10.455,0,0,0-5.932,4.772,18.472,18.472,0,0,0-1.9,9.031,13.673,13.673,0,0,0,1.815,7.563c1.236,1.982,2.719,2.864,4.533,2.864l1.238-.219,1.072-.954.166-.369v-.293l-.166-.735-.66-.588-1.236.516c-1.071,0-1.977-.736-2.638-2.131a13.487,13.487,0,0,1-1.072-5.58,19.957,19.957,0,0,1,.495-5.214A8.325,8.325,0,0,1,214.553-411.957Z" transform="translate(-71.858 425.834)"/>
        <path id="Path_1490" data-name="Path 1490" d="M224.951-411.564l-.247-2.569,1.318-.221h2.886l.741-1.394.085-.588-.085-.146-.082-.44-7.748.44.246,17.915-.577,5.139,2.806.516,3.957.072h.741l.742-.512.575-.807-.164-.808-.329-.736-1.072.223H227.59l-2.639-.223h-.082l.167-11.38,3.376.148.745-.662.164-.807-.164-.589-.661-.365h-3.46A19.035,19.035,0,0,1,224.951-411.564Z" transform="translate(-73.601 425.808)"/>
        <path id="Path_1491" data-name="Path 1491" d="M186.916-393.9l-.083-.148c-.493-7.49-1.481-11.455-2.8-11.822a3.123,3.123,0,0,0,1.568-1.836,8.538,8.538,0,0,0,.492-3.231,9.989,9.989,0,0,0-.988-4.773,3.75,3.75,0,0,0-3.213-1.468l-2.308.221-2.143.513.165,23.13.66.294h1.319l1.069-.219-.328-11.089.659-.071.495-.075a1.42,1.42,0,0,1,.988.294,1.59,1.59,0,0,1,.5,1.028l.577,3.378.084,6.609,1.568.22,1.153-.22Zm-5.522-21a1.38,1.38,0,0,1,1.4.809,15.471,15.471,0,0,1,.413,3.964,6.222,6.222,0,0,1-.493,3.085,2.924,2.924,0,0,1-1.979.66h-.413l.082-8.3Z" transform="translate(-67.138 425.846)"/>
        <g transform="matrix(1, 0, 0, 1, -9, 0)" filter="url(#Path_1492)">
          <path id="Path_1492-2" data-name="Path 1492" d="M132.093-409.835v-6.313H48.174V-395h83.919v-6.021a1.533,1.533,0,0,1-.412-.148l-.99-.735a4.024,4.024,0,0,1-1.484-3.084l.166-1.1a3.611,3.611,0,0,1,1.481-2.865l.826-.66C131.847-409.76,132.011-409.76,132.093-409.835ZM67.135-414.46a5.3,5.3,0,0,1,3.214.734,2.834,2.834,0,0,1,.908,2.351v4.7a3.106,3.106,0,0,1-.908,2.425,5.307,5.307,0,0,1-3.214.735H55.759v6.313H51.638V-414.46Zm26.214,0a5.02,5.02,0,0,1,3.133.734,2.646,2.646,0,0,1,.989,2.351v4.918a2.642,2.642,0,0,1-.989,2.349,4.54,4.54,0,0,1-3.133.809h-.907l6.924,5.066H97.883l1.483,1.028h-6.1L86.011-403.3H81.974v6.094H77.769V-414.46Zm13.189.807a6.019,6.019,0,0,1,3.628-.807H123.52a6.191,6.191,0,0,1,3.626.807,4.067,4.067,0,0,1,.823,2.938v9.693a4.153,4.153,0,0,1-.823,3.01c-.66.587-1.9.807-3.626.807H110.166c-1.815,0-2.968-.22-3.628-.807a4.143,4.143,0,0,1-.905-3.01v-9.693A4.065,4.065,0,0,1,106.538-413.653Z" transform="translate(-39.17 425.69)" fill="#d12528"/>
        </g>
        <path id="Path_1493" data-name="Path 1493" d="M70.945-413.436a5.3,5.3,0,0,0-3.214-.734h-15.5v16.227h4.121v-6.389H67.73a5.3,5.3,0,0,0,3.214-.733,3,3,0,0,0,.908-2.2v-3.818A2.833,2.833,0,0,0,70.945-413.436Zm-14.59,3.085v-1.029h9.48a4.045,4.045,0,0,1,1.566.219,1.368,1.368,0,0,1,.413,1.029v1.763a1.012,1.012,0,0,1-.413.954,2.873,2.873,0,0,1-1.566.294h-9.48Z" transform="translate(-48.77 425.404)" fill="#fff"/>
        <path id="Path_1494" data-name="Path 1494" d="M57.063-410.9v1.029h9.48a3.779,3.779,0,0,1,1.566.292,1.326,1.326,0,0,1,.413.809v-.882a1.368,1.368,0,0,0-.413-1.029,4.044,4.044,0,0,0-1.566-.219Z" transform="translate(-49.478 424.925)" fill="#4c494a"/>
        <path id="Path_1495" data-name="Path 1495" d="M66.543-409.694h-9.48v3.23h9.48a2.873,2.873,0,0,0,1.566-.294,1.012,1.012,0,0,0,.413-.954v-.881a1.326,1.326,0,0,0-.413-.809A3.779,3.779,0,0,0,66.543-409.694Z" transform="translate(-49.478 424.748)" fill="#d12528"/>
        <path id="Path_1496" data-name="Path 1496" d="M71.653-403.878a5.3,5.3,0,0,1-3.214.733H57.063v1.1H68.439a5.308,5.308,0,0,0,3.214-.735,3.106,3.106,0,0,0,.908-2.425v-.881A3,3,0,0,1,71.653-403.878Z" transform="translate(-49.478 424.218)" fill="#4c494a"/>
        <path id="Path_1497" data-name="Path 1497" d="M56.354-395.153H52.233v1.028h4.121Z" transform="translate(-48.77 422.614)" fill="#4c494a"/>
        <path id="Path_1498" data-name="Path 1498" d="M101.57-413.436a5.02,5.02,0,0,0-3.133-.734H82.857v16.227h4.205v-6.168H91.1l7.254,6.168h6.1l-6.924-5.066-1.482-1.1h2.389a4.558,4.558,0,0,0,3.133-.808,2.657,2.657,0,0,0,.989-2.2v-3.964A2.646,2.646,0,0,0,101.57-413.436Zm-14.508,3.085v-1.029H96.54a4.055,4.055,0,0,1,1.568.219,1.767,1.767,0,0,1,.329,1.029v1.982a1.589,1.589,0,0,1-.329,1.028l-1.568.22H87.062Z" transform="translate(-53.262 425.404)" fill="#fff"/>
        <path id="Path_1499" data-name="Path 1499" d="M87.785-410.9v1.029h9.478a3.789,3.789,0,0,1,1.567.292,1.308,1.308,0,0,1,.329.881v-.954a1.767,1.767,0,0,0-.329-1.029,4.054,4.054,0,0,0-1.567-.219Z" transform="translate(-53.985 424.925)" fill="#4c494a"/>
        <path id="Path_1500" data-name="Path 1500" d="M98.831-409.4a3.788,3.788,0,0,0-1.567-.292H87.785v3.45h9.478l1.567-.22a1.588,1.588,0,0,0,.329-1.028v-1.028A1.308,1.308,0,0,0,98.831-409.4Z" transform="translate(-53.985 424.748)" fill="#d12528"/>
        <path id="Path_1501" data-name="Path 1501" d="M104.827-404.955v-.954a2.657,2.657,0,0,1-.989,2.2,4.558,4.558,0,0,1-3.133.808H98.316l1.482,1.1h.907a4.54,4.54,0,0,0,3.133-.809A2.642,2.642,0,0,0,104.827-404.955Z" transform="translate(-55.53 424.192)" fill="#4c494a"/>
        <path id="Path_1502" data-name="Path 1502" d="M105.178-395.185l-1.483-1.028H99.077l-7.254-6.168H87.785v1.1h4.038l7.254,6.094Z" transform="translate(-53.985 423.675)" fill="#4c494a"/>
        <path id="Path_1503" data-name="Path 1503" d="M82.857-395.153v1.028h4.205v-1.028Z" transform="translate(-53.262 422.614)" fill="#4c494a"/>
        <path id="Path_1504" data-name="Path 1504" d="M120.046-414.17a6.018,6.018,0,0,0-3.628.807,4.065,4.065,0,0,0-.905,2.938v8.884a3.816,3.816,0,0,0,.905,2.717c.66.588,1.813.881,3.628.881H133.4a5.611,5.611,0,0,0,3.626-.881,3.476,3.476,0,0,0,.823-2.717v-8.884a4.067,4.067,0,0,0-.823-2.938,6.19,6.19,0,0,0-3.626-.807Zm-.331,3.965v-1.1h14.013v10.28H119.714Z" transform="translate(-58.053 425.404)" fill="#fff"/>
        <path id="Path_1505" data-name="Path 1505" d="M120.437-410.813v1.1H134.45v-1.1Z" transform="translate(-58.776 424.912)" fill="#4c494a"/>
        <path id="Path_1506" data-name="Path 1506" d="M134.45-409.523H120.437v9.179H134.45Z" transform="translate(-58.776 424.723)" fill="#d12528"/>
        <path id="Path_1507" data-name="Path 1507" d="M137.849-398.56v-.81a3.477,3.477,0,0,1-.823,2.717,5.611,5.611,0,0,1-3.626.881H120.046c-1.815,0-2.968-.293-3.628-.881a3.816,3.816,0,0,1-.905-2.717v.81a4.144,4.144,0,0,0,.905,3.01c.66.587,1.813.807,3.628.807H133.4c1.731,0,2.967-.22,3.626-.807A4.154,4.154,0,0,0,137.849-398.56Z" transform="translate(-58.053 423.233)" fill="#4c494a"/>
        <path id="Path_1508" data-name="Path 1508" d="M148.277-409.268a4.839,4.839,0,0,0-2.225.44c-.082.075-.247.075-.412.221l-.826.66a3.611,3.611,0,0,0-1.481,2.865v.22a3.684,3.684,0,0,0,1.481,3.158,6.975,6.975,0,0,0,1.238.806,4.447,4.447,0,0,0,2.225.441,5.413,5.413,0,0,0,3.545-1.247,4.626,4.626,0,0,0,1.32-2.13l.164-1.028a3.914,3.914,0,0,0-1.484-3.085A4.52,4.52,0,0,0,148.277-409.268Z" transform="translate(-62.134 424.687)" fill="url(#radial-gradient)"/>
        <path id="Path_1509" data-name="Path 1509" d="M151.715-400.175a4.365,4.365,0,0,0,1.4-2.936,4.626,4.626,0,0,1-1.32,2.13,5.412,5.412,0,0,1-3.545,1.248,4.447,4.447,0,0,1-2.225-.441,6.982,6.982,0,0,1-1.238-.806,3.684,3.684,0,0,1-1.481-3.158v-.22l-.166,1.1a4.024,4.024,0,0,0,1.484,3.084l.99.735a1.53,1.53,0,0,0,.412.148,4.955,4.955,0,0,0,2.062.44A5.3,5.3,0,0,0,151.715-400.175Z" transform="translate(-62.107 423.965)"/>
        <path id="Path_1510" data-name="Path 1510" d="M159.982-425.28a3.332,3.332,0,0,0-.66-1.469,1.934,1.934,0,0,0-1.236-.587,2.732,2.732,0,0,0-1.565.736,14.024,14.024,0,0,0-1.979,1.76,8.71,8.71,0,0,0-1.813,2.791,7.81,7.81,0,0,0-.414,3.157,12.768,12.768,0,0,0,.331,2.938,30.814,30.814,0,0,0,1.649,4.7l.165.589c1.979,4.917,2.968,8.222,2.968,9.838a4.444,4.444,0,0,1-.989,2.937c-.579.883-1.979,1.837-4.123,3.085h0a1.8,1.8,0,0,0,.578,1.173,6.408,6.408,0,0,0,1.9,1.029,11.134,11.134,0,0,0,4.945-3.3,7.751,7.751,0,0,0,1.649-5.065,17.612,17.612,0,0,0-.575-3.819,39.59,39.59,0,0,0-1.981-5.58l-.411-1.027c-1.648-3.966-2.39-6.463-2.39-7.564a6.088,6.088,0,0,1,.988-3.084A12.994,12.994,0,0,1,159.982-425.28Z" transform="translate(-63.449 427.336)"/>
        <path id="Path_1511" data-name="Path 1511" d="M170.088-414.354h2.8l.739-1.394.084-.588v-.146l-.084-.44-7.745.44.162,17.915-.493,5.139,2.721.516,4.7.072.742-.512.658-.807-.246-.808-.329-.736-.988.223h-1.238l-2.639-.223h-.082l.249-11.38,3.381.148.659-.662.162-.807-.162-.589-.659-.365H169.1l-.329-4.773Z" transform="translate(-65.395 425.808)"/>
      </g>
    </g>
  </g>
</svg>
