<svg xmlns="http://www.w3.org/2000/svg" width="15.668" height="17.65" viewBox="0 0 15.668 17.65">
  <g id="Untitled-2" transform="translate(-1 134)">
    <path id="Path_22117" data-name="Path 22117" d="M66.966-133.042C64.758-129.584,64-128.387,64-128.334a10.724,10.724,0,0,0,1.463.053h1.463v2.926l.372-.013c.319,0,.545-.293,2.181-2.846l1.809-2.846-1.476-.04-1.49-.04-.04-1.436c-.04-1.41-.04-1.423-.359-1.423C67.658-134,67.471-133.8,66.966-133.042Z" transform="translate(-54.621)" fill="#fff"/>
    <path id="Path_22118" data-name="Path 22118" d="M4.578-110.282c-1.569.891-3.033,1.729-3.219,1.862L1-108.181l.027,3.671.04,3.684L4.325-99l3.259,1.809.732-.412c.4-.226,1.862-1.037,3.232-1.8l2.487-1.4v-2.261c-.013-1.915-.04-2.235-.186-2.048s-.4.239-1.53.239H10.975V-107.8H9.047c-1.6,0-1.929-.04-1.929-.186a9.708,9.708,0,0,1,.918-1.623,6.573,6.573,0,0,0,.865-1.543,6.938,6.938,0,0,0-1.41-.758C7.464-111.9,6.161-111.173,4.578-110.282Z" transform="translate(0 -19.156)" fill="#fff"/>
  </g>
</svg>
