<svg xmlns="http://www.w3.org/2000/svg" xmlns:xlink="http://www.w3.org/1999/xlink" width="56.2" height="14.64" viewBox="0 0 56.2 14.64">
  <defs>
    <linearGradient id="linear-gradient" x1="0.02" y1="0.415" x2="0.966" y2="0.5" gradientUnits="objectBoundingBox">
      <stop offset="0" stop-color="#646feb"/>
      <stop offset="1" stop-color="#26a0f1"/>
    </linearGradient>
  </defs>
  <path id="Path_22158" data-name="Path 22158" d="M4.4-14,6.7-5.1,9-14h4.4L8.94,0H4.46L0-14ZM20-14a5.457,5.457,0,0,1,2.58.61,4.6,4.6,0,0,1,1.84,1.75,5.094,5.094,0,0,1,.68,2.66,5.094,5.094,0,0,1-.68,2.66,4.6,4.6,0,0,1-1.84,1.75A5.457,5.457,0,0,1,20-3.96H18.4V0h-4V-14Zm0,6.16a1.079,1.079,0,0,0,.78-.31,1.1,1.1,0,0,0,.32-.83,1.1,1.1,0,0,0-.32-.83,1.079,1.079,0,0,0-.78-.31H18.4v2.28ZM31.14.32a7.047,7.047,0,0,1-3.8-.95A4.636,4.636,0,0,1,25.3-3.2l3.42-1.98a2.812,2.812,0,0,0,.99,1.35,2.649,2.649,0,0,0,1.53.43,2.14,2.14,0,0,0,1.03-.19.587.587,0,0,0,.33-.53.641.641,0,0,0-.39-.6,7.767,7.767,0,0,0-1.33-.46q-.58-.14-.76-.2a7.432,7.432,0,0,1-3.06-1.65,3.758,3.758,0,0,1-1.12-2.85,4.2,4.2,0,0,1,.63-2.27,4.365,4.365,0,0,1,1.77-1.59,5.745,5.745,0,0,1,2.64-.58,6.112,6.112,0,0,1,3.19.84,4.956,4.956,0,0,1,2.07,2.42L32.92-9.12a2.4,2.4,0,0,0-.81-1.12A1.885,1.885,0,0,0,31-10.6a1.268,1.268,0,0,0-.79.21.645.645,0,0,0-.27.53.743.743,0,0,0,.47.68,11.634,11.634,0,0,0,1.81.62,13.6,13.6,0,0,1,2.27.86A4.044,4.044,0,0,1,36-6.38a3.8,3.8,0,0,1,.6,2.22A3.987,3.987,0,0,1,35.13-.85,6.234,6.234,0,0,1,31.14.32ZM45.6-7.82v3.48h-8V-7.82ZM56.2,0H47.6V-14h4V-3.88h4.6Z" transform="translate(0 14.32)" fill="url(#linear-gradient)"/>
</svg>
