<svg xmlns="http://www.w3.org/2000/svg" width="15.519" height="14.083" viewBox="0 0 15.519 14.083">
  <g id="Group_165372" data-name="Group 165372" transform="translate(-123.241 -454.917)">
    <g id="Path_22102" data-name="Path 22102" transform="translate(121 452)" fill="#fd0">
      <path d="M 14.75475120544434 16.85000228881836 L 5.245251178741455 16.85000228881836 C 4.210081100463867 16.85000228881836 3.285240888595581 16.31354141235352 2.771301031112671 15.41496181488037 C 2.257370948791504 14.51638221740723 2.263890981674194 13.44724178314209 2.788740873336792 12.55499267578125 L 7.543490886688232 4.471912384033203 C 8.061000823974609 3.592152118682861 8.979320526123047 3.066922187805176 10.00000095367432 3.066922187805176 C 11.02068138122559 3.066922187805176 11.93900108337402 3.592152118682861 12.45651054382324 4.471912384033203 L 17.21126174926758 12.55499267578125 C 17.73611068725586 13.44724178314209 17.74263000488281 14.51638221740723 17.22870063781738 15.41496181488037 C 16.71476173400879 16.31354141235352 15.78992080688477 16.85000228881836 14.75475120544434 16.85000228881836 Z" stroke="none"/>
      <path d="M 10.00000095367432 3.216922760009766 C 9.03303050994873 3.216922760009766 8.163041114807129 3.714511871337891 7.672780990600586 4.547972679138184 L 2.918031692504883 12.63105201721191 C 2.420801162719727 13.47633171081543 2.414630889892578 14.48920249938965 2.901510238647461 15.34049224853516 C 3.388401031494141 16.1917724609375 4.264560699462891 16.70000267028809 5.245250701904297 16.70000267028809 L 14.75475120544434 16.70000267028809 C 15.73543071746826 16.70000267028809 16.61159133911133 16.1917724609375 17.09848022460938 15.34049224853516 C 17.58537101745605 14.48921203613281 17.57920074462891 13.47633171081543 17.08197021484375 12.63105201721191 L 12.32722091674805 4.547972679138184 C 11.83695125579834 3.714511871337891 10.96696090698242 3.216922760009766 10.00000095367432 3.216922760009766 M 10.00000095367432 2.916921615600586 C 11.00291347503662 2.916921615600586 12.00582599639893 3.409902572631836 12.58580112457275 4.395862579345703 L 17.34055137634277 12.47894287109375 C 18.51696014404297 14.47884178161621 17.07500076293945 17.00000190734863 14.75475120544434 17.00000190734863 L 5.245250701904297 17.00000190734863 C 2.92500114440918 17.00000190734863 1.483030319213867 14.47884178161621 2.659450531005859 12.47894287109375 L 7.414200782775879 4.395862579345703 C 7.994175910949707 3.409902572631836 8.997088432312012 2.916921615600586 10.00000095367432 2.916921615600586 Z" stroke="none" fill="#000"/>
    </g>
    <path id="Path_22101" data-name="Path 22101" d="M2.152-8.16H.982l.086,5.108h1ZM1.561-.788a.69.69,0,0,0,.708-.687.681.681,0,0,0-.708-.676.685.685,0,0,0-.7.676A.694.694,0,0,0,1.561-.788Z" transform="translate(129.224 466.976)"/>
  </g>
</svg>
