<svg xmlns="http://www.w3.org/2000/svg" width="10.274" height="12.423" viewBox="0 0 10.274 12.423">
  <path id="youtube" d="M7.087,8.624v1.463q0,.464-.27.464A.445.445,0,0,1,6.5,10.4V8.312a.445.445,0,0,1,.312-.153q.27,0,.27.464Zm2.343.007V8.95H8.806V8.631q0-.471.312-.471t.312.471ZM2.734,7.12h.742V6.468H1.312V7.12H2.04v3.945h.693V7.12Zm2,3.945h.617V7.64H4.73V10.26q-.208.291-.4.291-.125,0-.146-.146a1.936,1.936,0,0,1-.007-.243V7.64H3.566V10.35a1.714,1.714,0,0,0,.056.506.373.373,0,0,0,.4.256,1.015,1.015,0,0,0,.707-.423v.374ZM7.7,10.038V8.673a2.462,2.462,0,0,0-.062-.686A.482.482,0,0,0,7.15,7.6a.835.835,0,0,0-.645.374v-1.5H5.888v4.6H6.5v-.333a.86.86,0,0,0,.645.381.48.48,0,0,0,.492-.381,2.545,2.545,0,0,0,.062-.693Zm2.343-.069v-.09H9.416A3.441,3.441,0,0,1,9.4,10.3a.265.265,0,0,1-.277.249q-.319,0-.319-.478v-.6h1.241V8.756a1.376,1.376,0,0,0-.187-.8.947.947,0,0,0-1.477,0,1.336,1.336,0,0,0-.194.8v1.2a1.3,1.3,0,0,0,.2.8.889.889,0,0,0,.749.354.858.858,0,0,0,.894-.742,3.066,3.066,0,0,0,.014-.4ZM5.832,3.64V2.184q0-.478-.3-.478t-.3.478V3.64q0,.485.3.485T5.832,3.64Zm4.984,5.206a12.017,12.017,0,0,1-.18,2.426,1.317,1.317,0,0,1-.4.686,1.211,1.211,0,0,1-.707.319,37.055,37.055,0,0,1-3.848.146,37.055,37.055,0,0,1-3.848-.146,1.23,1.23,0,0,1-.711-.319,1.266,1.266,0,0,1-.4-.686,11.771,11.771,0,0,1-.18-2.426A12.017,12.017,0,0,1,.723,6.42a1.317,1.317,0,0,1,.4-.686,1.255,1.255,0,0,1,.714-.326q1.269-.139,3.84-.139t3.848.139A1.3,1.3,0,0,1,10.636,6.42a11.771,11.771,0,0,1,.18,2.426ZM3.9,0h.707L3.766,2.766V4.645H3.073V2.766A11.723,11.723,0,0,0,2.65,1.3Q2.394.582,2.2,0h.735l.492,1.823ZM6.463,2.309V3.522a1.366,1.366,0,0,1-.194.818.864.864,0,0,1-.735.354.857.857,0,0,1-.728-.354,1.385,1.385,0,0,1-.194-.818V2.309A1.35,1.35,0,0,1,4.806,1.5a.857.857,0,0,1,.728-.354.864.864,0,0,1,.735.354A1.35,1.35,0,0,1,6.463,2.309ZM8.786,1.186V4.645H8.155V4.264a1,1,0,0,1-.714.43.385.385,0,0,1-.409-.256,1.776,1.776,0,0,1-.056-.52V1.185h.631V3.73a1.823,1.823,0,0,0,.007.243q.021.153.146.153.187,0,.4-.3V1.185h.631Z" transform="translate(-0.543)" fill="#fff"/>
</svg>
